<svg width="37" height="37" viewBox="0 0 37 37" fill="none" xmlns="http://www.w3.org/2000/svg">
<path d="M4.625 9.25001H7.70833M7.70833 9.25001H32.375M7.70833 9.25001V30.8333C7.70833 31.6511 8.03318 32.4354 8.61142 33.0136C9.18966 33.5918 9.97392 33.9167 10.7917 33.9167H26.2083C27.0261 33.9167 27.8103 33.5918 28.3886 33.0136C28.9668 32.4354 29.2917 31.6511 29.2917 30.8333V9.25001M12.3333 9.25001V6.16668C12.3333 5.34893 12.6582 4.56467 13.2364 3.98643C13.8147 3.40819 14.5989 3.08334 15.4167 3.08334H21.5833C22.4011 3.08334 23.1853 3.40819 23.7636 3.98643C24.3418 4.56467 24.6667 5.34893 24.6667 6.16668V9.25001" stroke="white" stroke-width="4" stroke-linecap="round" stroke-linejoin="round"/>
</svg>
